HIERARCHY
ROOT Hips
{
	OFFSET 0.000000 0.000000 0.000000 
	CHANNELS 6 Xposition Yposition Zposition Zrotation Yrotation Xrotation
	JOINT LeftUpLeg
	{
		OFFSET 1.363060 -1.794630 0.839290 
		CHANNELS 3 Zrotation Yrotation Xrotation
		JOINT LeftLeg
		{
			OFFSET 2.448110 -6.726130 0.000000 
			CHANNELS 3 Zrotation Yrotation Xrotation
			JOINT LeftFoot
			{
				OFFSET 2.562200 -7.039590 0.000000 
				CHANNELS 3 Zrotation Yrotation Xrotation
				JOINT LeftToeBase
				{
					OFFSET 0.157640 -0.433110 2.322550 
					CHANNELS 3 Zrotation Yrotation Xrotation
					End Site
					{
						OFFSET 0.000000 0.000000 0.000000 
					}
				}
			}
		}
	}
	JOINT RightUpLeg
	{
		OFFSET -1.305520 -1.794630 0.839290 
		CHANNELS 3 Zrotation Yrotation Xrotation
		JOINT RightLeg
		{
			OFFSET -2.542530 -6.985550 0.000000 
			CHANNELS 3 Zrotation Yrotation Xrotation
			JOINT RightFoot
			{
				OFFSET -2.568260 -7.056230 0.000000 
				CHANNELS 3 Zrotation Yrotation Xrotation
				JOINT RightToeBase
				{
					OFFSET -0.164730 -0.452590 2.363150 
					CHANNELS 3 Zrotation Yrotation Xrotation
					End Site
					{
						OFFSET 0.000000 0.000000 0.000000 
					}
				}
			}
		}
	}
	JOINT Spine
	{
		OFFSET 0.028270 2.035590 -0.193380 
		CHANNELS 3 Zrotation Yrotation Xrotation
		JOINT Spine1
		{
			OFFSET 0.056720 2.048850 -0.042750 
			CHANNELS 3 Zrotation Yrotation Xrotation
			JOINT Neck1
			{
				OFFSET -0.054170 1.746240 0.172020 
				CHANNELS 3 Zrotation Yrotation Xrotation
				JOINT Head
				{
					OFFSET 0.104070 1.761360 -0.123970 
					CHANNELS 3 Zrotation Yrotation Xrotation
					End Site
					{
						OFFSET 0.000000 0.000000 0.000000 
					}
				}
			}
			JOINT LeftArm
			{
				OFFSET 3.362410 1.200890 -0.311210 
				CHANNELS 3 Zrotation Yrotation Xrotation
				JOINT LeftForeArm
				{
					OFFSET 4.983000 -0.000000 -0.000000 
					CHANNELS 3 Zrotation Yrotation Xrotation
					JOINT LeftHand
					{
						OFFSET 3.483560 -0.000000 -0.000000 
						CHANNELS 3 Zrotation Yrotation Xrotation
						JOINT LeftHandIndex1
						{
							OFFSET 0.715260 -0.000000 -0.000000 
							CHANNELS 3 Zrotation Yrotation Xrotation
							End Site
							{
								OFFSET 0.000000 0.000000 0.000000 
							}
						}
					}
				}
			}
			JOINT RightArm
			{
				OFFSET -3.136600 1.374050 -0.404650 
				CHANNELS 3 Zrotation Yrotation Xrotation
				JOINT RightForeArm
				{
					OFFSET -5.241900 -0.000000 -0.000000 
					CHANNELS 3 Zrotation Yrotation Xrotation
					JOINT RightHand
					{
						OFFSET -3.444170 -0.000000 -0.000000 
						CHANNELS 3 Zrotation Yrotation Xrotation
						JOINT RightHandIndex1
						{
							OFFSET -0.622530 -0.000000 -0.000000 
							CHANNELS 3 Zrotation Yrotation Xrotation
							End Site
							{
								OFFSET 0.000000 0.000000 0.000000 
							}
						}
					}
				}
			}
		}
	}
}
MOTION
Frames: 10
Frame Time: 0.041667
-0.310808 17.834748 34.999741 -177.014763 -12.418912 -169.202924 -13.713775 -6.042046 -2.476391 -0.821218 3.261292 9.636937 0.612027 -3.711622 -6.135104 1.770000 -8.369700 -23.842600 15.371199 0.054978 -27.715887 0.737599 -8.407317 21.632392 -2.670926 7.845840 4.778066 -0.173200 -2.680700 7.390900 1.839522 -1.732885 -3.471239 0.638439 -0.791509 9.984897 9.764280 -4.076013 4.914061 3.724800 -1.909200 -2.615100 -97.817790 -5.113776 22.429493 8.239438 -14.474209 -1.080395 0.009159 -0.307615 31.998236 -7.125000 0.000000 0.000000 94.408182 -2.887303 -5.086126 -11.923345 23.083643 -2.810485 0.517802 -1.948959 35.138005 7.125000 0.000000 0.000000 
-0.309929 17.833758 34.999522 -176.959264 -12.433850 -169.189675 -13.652020 -6.056895 -2.525695 -0.815825 3.290012 9.716506 0.613589 -3.718677 -6.133695 1.763500 -8.355100 -23.798000 15.455575 -0.008527 -27.781935 0.754675 -8.389743 21.602206 -2.641484 7.760115 5.513638 -0.225900 -3.059300 8.443900 1.843215 -1.716432 -3.457280 0.627374 -0.782839 10.049760 9.827408 -4.123821 4.900552 3.764800 -1.933000 -2.590300 -97.768629 -5.174503 22.608995 8.259640 -14.499568 -1.082428 0.005661 -0.308129 31.773105 -7.125000 0.000000 0.000000 94.373676 -2.765524 -5.286751 -11.851645 22.987917 -2.785049 0.507273 -1.936701 35.285647 7.125000 0.000000 0.000000 
-0.310478 17.835847 34.998093 -176.872420 -12.481374 -169.175747 -13.530279 -6.114102 -2.614595 -0.809605 3.328811 9.823024 0.616400 -3.719970 -6.149552 1.754800 -8.335500 -23.737900 15.558978 -0.025430 -27.808258 0.774841 -8.365041 21.549871 -2.572293 7.463585 6.218399 -0.305400 -3.552900 9.822100 1.854287 -1.721169 -3.461758 0.618584 -0.781025 10.024514 9.797684 -4.202549 4.872564 3.744700 -1.973400 -2.611100 -97.751219 -5.136324 22.916288 8.306180 -14.561246 -1.091202 0.005109 -0.312210 31.330523 -7.125000 0.000000 0.000000 94.365545 -2.801214 -5.374886 -11.869298 23.000882 -2.782925 0.508481 -1.929151 35.338027 7.125000 0.000000 0.000000 
-0.312127 17.836616 34.996774 -176.785353 -12.554638 -169.164856 -13.414509 -6.174856 -2.634074 -0.811286 3.323869 9.812538 0.614185 -3.694392 -6.135309 1.753100 -8.331600 -23.726000 15.636014 -0.008396 -27.828938 0.785017 -8.360918 21.549187 -2.506483 7.168192 6.826109 -0.400200 -4.061700 11.250200 1.869470 -1.747716 -3.468709 0.609145 -0.790890 9.992148 9.724585 -4.261001 4.842063 3.698500 -2.002900 -2.632700 -97.763171 -5.098727 23.207217 8.351102 -14.621202 -1.100462 0.006278 -0.316773 30.956052 -7.125000 0.000000 0.000000 94.345952 -2.845078 -5.360954 -11.901282 23.034864 -2.795219 0.521909 -1.933780 35.267348 7.125000 0.000000 0.000000 
-0.312347 17.833868 34.996554 -176.773326 -12.586932 -169.141869 -13.400903 -6.184363 -2.586774 -0.820349 3.277103 9.688227 0.608246 -3.653333 -6.109219 1.792700 -8.420300 -23.998100 15.647601 -0.001709 -27.876033 0.787652 -8.371755 21.586312 -2.457353 6.933396 7.397116 -0.472800 -4.410100 12.233300 1.889071 -1.790255 -3.469912 0.693280 -0.817296 9.994816 9.730793 -4.218789 4.823857 3.702500 -1.982500 -2.646500 -97.867878 -5.205179 22.276975 8.194851 -14.389776 -1.064013 0.001624 -0.304239 31.914624 -7.125000 0.000000 0.000000 94.249294 -2.854357 -5.223752 -11.917756 23.044461 -2.799446 0.528237 -1.931886 35.108037 7.125000 0.000000 0.000000 
-0.311907 17.829912 34.994026 -176.890457 -12.582631 -169.105438 -13.542198 -6.160742 -2.477347 -0.834558 3.203235 9.488038 0.598223 -3.587626 -6.088496 1.852800 -8.552400 -24.405000 15.555530 -0.066747 -27.946387 0.796828 -8.377550 21.627172 -2.388323 6.540458 8.726481 -0.711200 -5.389700 15.023400 1.898224 -1.812395 -3.465739 0.832147 -0.841297 10.025395 9.757865 -4.171964 4.875717 3.712600 -1.957300 -2.627000 -98.015195 -5.261852 22.448156 8.250464 -14.459271 -1.074441 0.005577 -0.316528 31.603966 -7.125000 0.000000 0.000000 94.144775 -2.882182 -5.106223 -11.954964 23.072187 -2.801099 0.523374 -1.921250 34.990697 7.125000 0.000000 0.000000 
-0.312127 17.828373 34.990729 -177.051185 -12.567669 -169.063346 -13.735043 -6.137337 -2.359926 -0.849272 3.126397 9.277195 0.585695 -3.515711 -6.042195 1.872500 -8.595300 -24.537200 15.399065 -0.088976 -27.982773 0.779328 -8.409722 21.713937 -2.418564 6.677551 8.569939 -0.778300 -5.632700 15.722500 1.888971 -1.816434 -3.459561 0.873542 -0.853037 10.056481 9.762268 -4.161605 4.978074 3.701400 -1.948300 -2.560800 -98.062720 -5.348786 21.745560 8.135932 -14.290779 -1.048121 0.002031 -0.307247 32.366404 -7.125000 0.000000 0.000000 94.106558 -2.839088 -5.134638 -11.924432 23.028750 -2.788836 0.515169 -1.914244 35.034736 7.125000 0.000000 0.000000 
-0.311797 17.829472 34.988641 -177.105355 -12.586526 -169.024600 -13.796816 -6.137275 -2.279634 -0.863703 3.048618 9.068436 0.572422 -3.433288 -5.975012 1.898200 -8.650800 -24.708800 15.318105 -0.005441 -27.997828 0.766557 -8.438718 21.784286 -2.422197 6.700592 8.423377 -0.810100 -5.743800 16.042700 1.876981 -1.828513 -3.462994 0.807712 -0.856486 10.028732 9.781474 -4.142011 5.040808 3.699600 -1.938200 -2.519900 -97.964126 -5.302203 21.734246 8.141157 -14.292629 -1.048808 0.002563 -0.308400 32.385113 -7.125000 0.000000 0.000000 94.141940 -2.846313 -5.070068 -11.906741 23.024717 -2.783453 0.514735 -1.915085 35.000385 7.125000 0.000000 0.000000 
-0.312127 17.830681 34.986333 -177.072360 -12.617710 -168.978884 -13.754102 -6.143961 -2.245674 -0.875734 2.977347 8.880550 0.562520 -3.386427 -5.877670 1.898700 -8.651700 -24.711800 15.328464 0.089990 -28.023940 0.761480 -8.457837 21.826814 -2.401455 6.609850 8.425950 -0.786300 -5.660800 15.803300 1.883239 -1.859247 -3.474490 0.784491 -0.866722 9.974722 9.755862 -4.110977 5.040530 3.693400 -1.922100 -2.533300 -97.945083 -5.246998 21.930472 8.170073 -14.316612 -1.052951 0.005913 -0.316528 32.128947 -7.125000 0.000000 0.000000 94.131970 -2.986159 -4.862165 -11.970614 23.116261 -2.797617 0.518470 -1.915307 34.880833 7.125000 0.000000 0.000000 
-0.314105 17.831670 34.982816 -177.084220 -12.610484 -168.903672 -13.769638 -6.129652 -2.248676 -0.883911 2.926085 8.743866 0.555051 -3.366194 -5.778422 1.864200 -8.577400 -24.482000 15.320826 0.092229 -28.092933 0.761920 -8.464218 21.840262 -2.394901 6.570581 8.572051 -0.787600 -5.665500 15.817000 1.901273 -1.901861 -3.479171 0.858874 -0.892144 9.997681 9.677154 -4.086763 5.048731 3.672100 -1.904100 -2.531200 -98.063129 -5.291050 21.505399 8.102955 -14.213163 -1.036833 0.004632 -0.313319 32.542369 -7.125000 0.000000 0.000000 94.008210 -3.073726 -4.719675 -11.982352 23.126186 -2.794481 0.516380 -1.905328 34.905047 7.125000 0.000000 0.000000 
